<?xml version="1.0" standalone="no"?>
<!DOCTYPE svg PUBLIC "-//W3C//DTD SVG 20010904//EN"
 "http://www.w3.org/TR/2001/REC-SVG-20010904/DTD/svg10.dtd">
<svg version="1.0" xmlns="http://www.w3.org/2000/svg"
 width="399.000000pt" height="399.000000pt" viewBox="0 0 399.000000 399.000000"
 preserveAspectRatio="xMidYMid meet">
<metadata>
Created by potrace 1.14, written by Peter Selinger 2001-2017
</metadata>
<g transform="translate(0.000000,399.000000) scale(0.100000,-0.100000)"
fill="#000000" stroke="none">
<path d="M0 1995 l0 -1995 1995 0 1995 0 0 1995 0 1995 -1995 0 -1995 0 0
-1995z m2846 1270 c23 -9 40 -25 47 -44 9 -24 19 -31 62 -40 163 -37 285 -144
316 -278 l12 -51 62 -7 c70 -7 130 -33 130 -55 0 -16 -60 -34 -147 -45 -43 -6
-48 -9 -48 -31 0 -13 -14 -95 -31 -181 -24 -122 -29 -173 -25 -227 18 -231 18
-285 1 -368 -61 -302 -274 -621 -493 -736 -104 -54 -300 -112 -457 -133 -49
-7 -92 -14 -94 -15 -2 -2 9 -24 24 -49 32 -56 71 -75 149 -75 60 0 142 -15
166 -30 25 -17 -7 -29 -49 -19 -20 5 -52 9 -71 9 l-35 0 54 -28 c68 -37 121
-79 121 -97 0 -24 -19 -18 -63 20 -33 28 -126 72 -217 102 -8 3 6 -14 33 -37
53 -47 84 -97 69 -112 -6 -6 -23 9 -45 41 -35 48 -87 84 -149 102 -28 8 -159
-13 -190 -31 -27 -15 -37 -12 -31 10 8 29 49 48 134 62 39 7 74 18 76 25 3 7
-11 35 -31 61 -35 48 -37 49 -98 56 -35 3 -110 15 -168 25 -58 11 -122 22
-143 26 l-38 6 48 -63 c26 -34 80 -109 118 -167 39 -57 81 -112 95 -122 19
-14 58 -21 157 -28 157 -13 244 -41 202 -66 -6 -4 -38 -2 -72 3 -34 6 -80 13
-102 16 -46 5 -49 8 80 -68 96 -57 144 -109 110 -122 -11 -5 -30 6 -58 34 -23
22 -64 51 -92 65 -64 32 -225 89 -224 79 0 -4 23 -24 50 -45 48 -37 109 -117
109 -144 0 -30 -32 -10 -64 40 -55 86 -159 147 -248 147 -61 -1 -215 -33 -231
-49 -31 -31 -36 4 -7 42 16 20 40 30 109 46 49 12 99 21 112 21 13 0 31 4 39
10 20 13 -1 55 -81 155 -116 148 -334 355 -372 355 -7 0 -91 -52 -187 -115
-168 -112 -204 -129 -213 -102 -5 16 1 36 79 281 l67 209 -28 23 c-68 54 -188
56 -316 6 -99 -40 -321 -109 -387 -122 -59 -11 -92 -1 -92 27 0 24 98 115 179
168 71 46 91 55 305 136 234 89 352 163 546 346 64 61 121 126 156 180 31 46
74 98 96 116 22 17 71 73 109 124 69 92 131 146 184 159 16 4 55 31 87 61 73
67 199 150 431 283 129 74 194 118 235 160 76 76 159 98 238 65z"/>
<path d="M2719 3164 c-41 -8 -69 -45 -75 -100 -5 -47 -4 -50 30 -77 l36 -28
118 26 c254 58 255 58 305 48 l47 -10 -22 25 c-31 33 -93 68 -164 93 -58 20
-216 33 -275 23z"/>
<path d="M2354 2997 c-197 -113 -346 -211 -383 -251 -14 -14 -23 -26 -20 -26
13 0 162 33 208 47 65 19 140 7 207 -32 38 -23 43 -23 46 -7 2 9 -2 31 -9 49
-19 46 -16 108 6 151 21 42 43 63 87 85 22 11 33 26 38 48 3 18 5 34 3 36 -2
2 -84 -43 -183 -100z"/>
<path d="M3005 3015 c-33 -7 -109 -25 -169 -39 -59 -14 -110 -27 -113 -30 -3
-2 0 -13 6 -24 16 -29 14 -118 -3 -151 -23 -44 -82 -90 -126 -97 l-39 -6 -8
-67 c-4 -36 -8 -104 -8 -151 0 -81 3 -92 62 -240 50 -125 64 -176 77 -265 24
-167 21 -239 -13 -332 -15 -43 -36 -123 -45 -178 -19 -110 -37 -150 -83 -180
-24 -17 -28 -25 -22 -43 22 -58 93 -48 230 32 225 132 441 514 464 820 4 48 2
101 -5 131 -24 108 -23 155 9 326 40 216 40 215 -6 228 -21 6 -55 11 -75 11
-50 0 -49 16 1 23 56 7 111 53 111 92 0 37 -36 102 -71 128 -35 25 -99 30
-174 12z m-123 -65 c45 -13 62 -40 53 -86 -6 -36 -24 -51 -65 -54 -87 -7 -115
12 -107 74 6 42 35 76 66 76 9 0 33 -5 53 -10z"/>
<path d="M2459 2951 c-35 -35 -39 -44 -39 -90 0 -81 41 -138 113 -156 104 -27
206 79 177 184 -12 47 -63 103 -68 76 -2 -9 6 -27 18 -40 14 -14 24 -41 27
-67 11 -115 -124 -179 -206 -97 -55 54 -51 127 10 185 16 15 29 31 29 36 0 18
-25 6 -61 -31z"/>
<path d="M2095 2724 c-49 -12 -124 -30 -166 -39 -102 -21 -153 -55 -224 -151
-33 -43 -87 -106 -121 -139 -33 -33 -77 -86 -98 -118 -32 -50 -142 -258 -252
-476 -18 -35 -67 -170 -109 -300 -42 -130 -92 -281 -110 -336 -19 -55 -32
-101 -30 -103 8 -8 626 409 803 543 380 283 557 457 647 631 43 85 59 158 53
245 -9 116 -84 219 -186 253 -58 20 -96 18 -207 -10z"/>
<path d="M2420 2716 c0 -8 16 -37 35 -66 19 -29 41 -73 49 -98 l14 -47 5 35
c21 126 21 127 -16 139 -19 7 -43 21 -52 31 -21 23 -35 26 -35 6z"/>
<path d="M2516 2293 c7 -114 -19 -263 -62 -361 -28 -62 -27 -98 1 -165 13 -33
19 -37 51 -37 24 0 43 -8 59 -25 31 -30 31 -41 -1 -89 -20 -29 -27 -53 -29
-100 -1 -33 -9 -74 -18 -91 -11 -19 -17 -53 -17 -92 0 -55 2 -63 18 -63 42 0
67 50 88 176 9 54 28 128 43 164 53 132 28 369 -63 595 -31 75 -56 145 -56
155 0 10 -5 22 -10 25 -7 4 -8 -27 -4 -92z"/>
<path d="M2485 2283 c-10 -43 -70 -145 -121 -208 -47 -57 -47 -58 -30 -85 12
-22 16 -54 16 -144 l0 -116 53 0 54 0 -18 53 c-24 67 -23 99 0 146 45 87 93
381 64 381 -6 0 -14 -12 -18 -27z"/>
<path d="M1265 2039 c-173 -155 -271 -212 -528 -308 -76 -28 -164 -64 -195
-80 -98 -49 -246 -171 -229 -188 11 -11 150 26 302 79 281 99 345 107 448 54
27 -15 51 -25 52 -24 1 2 19 50 40 108 21 57 78 182 127 277 49 95 88 173 86
172 -1 0 -48 -41 -103 -90z"/>
<path d="M2295 1992 c-7 -4 -9 -32 -5 -72 4 -52 8 -65 23 -66 14 -2 17 7 17
55 0 58 -16 97 -35 83z"/>
<path d="M2290 1767 c0 -103 3 -101 -212 -107 l-183 -6 201 -2 c240 -2 234 -5
234 106 0 65 -2 72 -20 72 -18 0 -20 -7 -20 -63z"/>
<path d="M2340 1680 c-7 -17 -21 -35 -31 -40 -10 -6 -113 -10 -229 -10 l-211
0 -77 -58 c-82 -62 -279 -201 -350 -247 l-43 -28 46 -32 c66 -48 172 -101 235
-119 88 -25 368 -66 455 -66 95 0 242 22 343 52 72 21 84 30 58 45 -7 4 -20
22 -29 38 -8 17 -26 37 -40 44 -27 14 -47 50 -47 82 0 11 18 39 41 64 38 41
41 49 43 107 1 35 5 69 9 76 5 6 -4 36 -19 67 l-27 55 -57 0 c-55 0 -58 -2
-70 -30z"/>
<path d="M2506 1659 l26 -52 18 28 c27 42 4 75 -51 75 -18 0 -18 -3 7 -51z"/>
<path d="M2461 1374 c-27 -34 -26 -47 4 -81 l24 -28 1 68 c0 37 -2 67 -4 67
-3 0 -14 -12 -25 -26z"/>
</g>
</svg>
